<?xml version="1.0" encoding="UTF-8"?><svg xmlns="http://www.w3.org/2000/svg" xmlns:xlink="http://www.w3.org/1999/xlink" contentScriptType="text/ecmascript" width="810" zoomAndPan="magnify" contentStyleType="text/css" viewBox="0 0 810 809.999993" height="809.999993" preserveAspectRatio="xMidYMid meet" version="1.0"><defs><clipPath id="clip-0"><path d="M 262.445312 262.445312 L 547.445312 262.445312 L 547.445312 547.445312 L 262.445312 547.445312 Z M 262.445312 262.445312 " clip-rule="nonzero"/></clipPath></defs><g clip-path="url(#clip-0)"><path fill="rgb(85.099792%, 57.249451%, 45.098877%)" d="M 404.945312 275.019531 C 333.1875 275.019531 275.019531 333.1875 275.019531 404.945312 C 275.019531 476.703125 333.1875 534.871094 404.945312 534.871094 C 476.703125 534.871094 534.871094 476.703125 534.871094 404.945312 C 534.871094 333.1875 476.703125 275.019531 404.945312 275.019531 Z M 262.445312 404.945312 C 262.445312 326.246094 326.246094 262.445312 404.945312 262.445312 C 483.644531 262.445312 547.445312 326.246094 547.445312 404.945312 C 547.445312 483.644531 483.644531 547.445312 404.945312 547.445312 C 326.246094 547.445312 262.445312 483.644531 262.445312 404.945312 Z M 262.445312 404.945312 " fill-opacity="1" fill-rule="evenodd"/></g><path fill="rgb(85.099792%, 57.249451%, 45.098877%)" d="M 325.730469 348.246094 C 322.847656 351.835938 321.121094 356.394531 321.121094 361.355469 L 321.121094 448.671875 C 321.121094 453.636719 322.847656 458.195312 325.730469 461.785156 L 388.828125 406.9375 Z M 332.277344 467.203125 C 335.203125 468.75 338.539062 469.628906 342.078125 469.628906 L 467.8125 469.628906 C 471.351562 469.628906 474.6875 468.75 477.613281 467.203125 L 414.449219 412.296875 C 408.535156 415.523438 401.355469 415.523438 395.441406 412.296875 Z M 484.160156 461.785156 C 487.042969 458.195312 488.769531 453.636719 488.769531 448.671875 L 488.769531 361.355469 C 488.769531 356.394531 487.042969 351.835938 484.164062 348.246094 L 421.0625 406.9375 Z M 477.65625 342.851562 C 474.71875 341.289062 471.371094 340.402344 467.8125 340.402344 L 342.078125 340.402344 C 338.519531 340.402344 335.171875 341.289062 332.234375 342.851562 L 397.835938 403.867188 C 402.003906 407.15625 407.886719 407.15625 412.054688 403.867188 Z M 477.65625 342.851562 " fill-opacity="1" fill-rule="evenodd"/></svg>